<svg version="1.1" viewBox="0.0 0.0 256.0 256.0" fill="none" stroke="none" stroke-linecap="square" stroke-miterlimit="10" xmlns:xlink="http://www.w3.org/1999/xlink" xmlns="http://www.w3.org/2000/svg"><clipPath id="p.0"><path d="m0 0l256.0 0l0 256.0l-256.0 0l0 -256.0z" clip-rule="nonzero"/></clipPath><g clip-path="url(#p.0)"><path fill="#000000" fill-opacity="0.0" d="m0 0l256.0 0l0 256.0l-256.0 0z" fill-rule="evenodd"/><path fill="#93c47d" d="m3.3070867 128.0l0 0c0 -68.866 55.82692 -124.69292 124.69292 -124.69292l0 0c33.070618 0 64.78674 13.137251 88.1712 36.52171c23.38446 23.384457 36.521713 55.100586 36.521713 88.1712l0 0c0 68.866 -55.82692 124.69292 -124.69292 124.69292l0 0c-68.866 0 -124.69292 -55.82692 -124.69292 -124.69292z" fill-rule="evenodd"/><path stroke="#000000" stroke-width="1.0" stroke-linejoin="round" stroke-linecap="butt" d="m3.3070867 128.0l0 0c0 -68.866 55.82692 -124.69292 124.69292 -124.69292l0 0c33.070618 0 64.78674 13.137251 88.1712 36.52171c23.38446 23.384457 36.521713 55.100586 36.521713 88.1712l0 0c0 68.866 -55.82692 124.69292 -124.69292 124.69292l0 0c-68.866 0 -124.69292 -55.82692 -124.69292 -124.69292z" fill-rule="evenodd"/><path fill="#0b5394" d="m30.755905 128.0l0 0c0 -53.70643 43.537666 -97.244095 97.244095 -97.244095l0 0c25.790741 0 50.525146 10.245331 68.76196 28.482136c18.236801 18.236805 28.482132 42.97122 28.482132 68.76196l0 0c0 53.706436 -43.53766 97.244095 -97.244095 97.244095l0 0c-53.70643 0 -97.244095 -43.53766 -97.244095 -97.244095z" fill-rule="evenodd"/><path stroke="#000000" stroke-width="1.0" stroke-linejoin="round" stroke-linecap="butt" d="m30.755905 128.0l0 0c0 -53.70643 43.537666 -97.244095 97.244095 -97.244095l0 0c25.790741 0 50.525146 10.245331 68.76196 28.482136c18.236801 18.236805 28.482132 42.97122 28.482132 68.76196l0 0c0 53.706436 -43.53766 97.244095 -97.244095 97.244095l0 0c-53.70643 0 -97.244095 -43.53766 -97.244095 -97.244095z" fill-rule="evenodd"/><path fill="#93c47d" d="m61.842518 128.0l0 0c0 -36.537766 29.619717 -66.157486 66.157486 -66.157486l0 0c17.546051 0 34.373474 6.9701424 46.780396 19.377079c12.406937 12.406937 19.37709 29.234352 19.37709 46.780403l0 0c0 36.537766 -29.61972 66.157486 -66.157486 66.157486l0 0c-36.537766 0 -66.157486 -29.61972 -66.157486 -66.157486z" fill-rule="evenodd"/><path stroke="#000000" stroke-width="1.0" stroke-linejoin="round" stroke-linecap="butt" d="m61.842518 128.0l0 0c0 -36.537766 29.619717 -66.157486 66.157486 -66.157486l0 0c17.546051 0 34.373474 6.9701424 46.780396 19.377079c12.406937 12.406937 19.37709 29.234352 19.37709 46.780403l0 0c0 36.537766 -29.61972 66.157486 -66.157486 66.157486l0 0c-36.537766 0 -66.157486 -29.61972 -66.157486 -66.157486z" fill-rule="evenodd"/><path fill="#000000" fill-opacity="0.0" d="m0 0.2808399l127.74803 127.74803" fill-rule="evenodd"/><path stroke="#000000" stroke-width="8.0" stroke-linejoin="round" stroke-linecap="butt" d="m0 0.2808399l127.74803 127.74803" fill-rule="evenodd"/><path fill="#cc4125" d="m103.59055 128.0l0 0c0 -13.480965 10.928482 -24.409447 24.409447 -24.409447l0 0c6.4737854 0 12.682434 2.571701 17.260086 7.1493607c4.577667 4.5776596 7.1493683 10.786301 7.1493683 17.260086l0 0c0 13.480972 -10.928482 24.409454 -24.409454 24.409454l0 0c-13.480965 0 -24.409447 -10.928482 -24.409447 -24.409454z" fill-rule="evenodd"/><path stroke="#000000" stroke-width="1.0" stroke-linejoin="round" stroke-linecap="butt" d="m103.59055 128.0l0 0c0 -13.480965 10.928482 -24.409447 24.409447 -24.409447l0 0c6.4737854 0 12.682434 2.571701 17.260086 7.1493607c4.577667 4.5776596 7.1493683 10.786301 7.1493683 17.260086l0 0c0 13.480972 -10.928482 24.409454 -24.409454 24.409454l0 0c-13.480965 0 -24.409447 -10.928482 -24.409447 -24.409454z" fill-rule="evenodd"/></g></svg>